<svg width="256" height="256" viewBox="0 0 256 256" fill="none" xmlns="http://www.w3.org/2000/svg">
  <defs>
    <linearGradient id="a" x1="40" y1="28" x2="216" y2="228" gradientUnits="userSpaceOnUse">
      <stop stop-color="#f3c98f"/>
      <stop offset="1" stop-color="#d38e37"/>
    </linearGradient>
    <linearGradient id="b" x1="128" y1="52" x2="128" y2="208" gradientUnits="userSpaceOnUse">
      <stop stop-color="#1e140b"/>
      <stop offset="1" stop-color="#362010"/>
    </linearGradient>
  </defs>
  <rect x="20" y="20" width="216" height="216" rx="52" fill="#17120f"/>
  <rect x="26" y="26" width="204" height="204" rx="46" fill="url(#a)"/>
  <path d="M77 77c-13.3 0-24 10.7-24 24 0 8.9 4.9 16.7 12.2 20.8-6.6 5-10.9 13-10.9 22 0 15.1 12.3 27.4 27.4 27.4s27.4-12.3 27.4-27.4c0-11.6-7.3-21.9-17.8-25.8v-11.3c5.3-3.3 8.8-9.2 8.8-15.9 0-7.6-4.1-14.4-10.7-18.1z" fill="#f8e4c3" fill-opacity=".28"/>
  <path d="M179 77c13.3 0 24 10.7 24 24 0 8.9-4.9 16.7-12.2 20.8 6.6 5 10.9 13 10.9 22 0 15.1-12.3 27.4-27.4 27.4s-27.4-12.3-27.4-27.4c0-11.6 7.3-21.9 17.8-25.8v-11.3c-5.3-3.3-8.8-9.2-8.8-15.9 0-7.6 4.1-14.4 10.7-18.1z" fill="#f8e4c3" fill-opacity=".08"/>
  <path d="M70 81c-11.6 0-21 9.4-21 21 0 8.6 5.1 16 12.5 19.4-6.7 4.4-11.1 12.1-11.1 20.8 0 13.6 11 24.6 24.6 24.6s24.6-11 24.6-24.6c0-9-4.9-17.1-12.2-21.4v-14.7c4.6-3.7 7.6-9.4 7.6-15.7C95 79.7 86.3 71 75.6 71h-6.2l10.1 18.9z" fill="url(#b)"/>
  <path d="M186 81c11.6 0 21 9.4 21 21 0 8.6-5.1 16-12.5 19.4 6.7 4.4 11.1 12.1 11.1 20.8 0 13.6-11 24.6-24.6 24.6s-24.6-11-24.6-24.6c0-9 4.9-17.1 12.2-21.4v-14.7c-4.6-3.7-7.6-9.4-7.6-15.7 0-10.7 8.7-19.4 19.4-19.4h6.2l-10.1 18.9z" fill="url(#b)"/>
  <path d="m78 181 21.6-92h18.6l9.8 43 9.8-43h18.6l21.6 92h-22l-9.5-49.1L136 181h-16l-10.5-49.1L100 181z" fill="#1c120b"/>
  <path d="m78 181 21.6-92h18.6l9.8 43 9.8-43h18.6l21.6 92h-14.9l-13.5-67.1-15.1 67.1h-13l-15.1-67.1L92.9 181z" fill="#2a180d"/>
</svg>
