<svg width="1600" height="900" viewBox="0 0 1600 900" fill="none" xmlns="http://www.w3.org/2000/svg">
  <defs>
    <linearGradient id="bg-main" x1="90" y1="70" x2="1520" y2="860" gradientUnits="userSpaceOnUse">
      <stop stop-color="#120F0D"/>
      <stop offset="0.48" stop-color="#1C1713"/>
      <stop offset="1" stop-color="#090807"/>
    </linearGradient>
    <radialGradient id="glow-left" cx="0" cy="0" r="1" gradientUnits="userSpaceOnUse" gradientTransform="translate(298 255) rotate(39.2) scale(520 360)">
      <stop stop-color="#E7B56E" stop-opacity="0.32"/>
      <stop offset="1" stop-color="#E7B56E" stop-opacity="0"/>
    </radialGradient>
    <radialGradient id="glow-right" cx="0" cy="0" r="1" gradientUnits="userSpaceOnUse" gradientTransform="translate(1260 700) rotate(145.3) scale(480 300)">
      <stop stop-color="#7D5330" stop-opacity="0.24"/>
      <stop offset="1" stop-color="#7D5330" stop-opacity="0"/>
    </radialGradient>
    <linearGradient id="panel-border" x1="960" y1="160" x2="1420" y2="760" gradientUnits="userSpaceOnUse">
      <stop stop-color="#F1C78B"/>
      <stop offset="1" stop-color="#8E5A29"/>
    </linearGradient>
    <linearGradient id="accent" x1="0" y1="0" x2="1" y2="1">
      <stop stop-color="#F3C98F"/>
      <stop offset="1" stop-color="#D38E37"/>
    </linearGradient>
    <linearGradient id="mark-bg" x1="40" y1="28" x2="216" y2="228" gradientUnits="userSpaceOnUse">
      <stop stop-color="#F3C98F"/>
      <stop offset="1" stop-color="#D38E37"/>
    </linearGradient>
    <linearGradient id="mark-ink" x1="128" y1="52" x2="128" y2="208" gradientUnits="userSpaceOnUse">
      <stop stop-color="#1E140B"/>
      <stop offset="1" stop-color="#362010"/>
    </linearGradient>
    <filter id="shadow-soft" x="-20%" y="-20%" width="140%" height="140%" color-interpolation-filters="sRGB">
      <feDropShadow dx="0" dy="18" stdDeviation="28" flood-color="#000000" flood-opacity="0.28"/>
    </filter>
    <pattern id="grid" width="40" height="40" patternUnits="userSpaceOnUse">
      <path d="M40 0H0V40" stroke="#F0D7B1" stroke-opacity="0.06"/>
    </pattern>
  </defs>

  <rect width="1600" height="900" rx="32" fill="url(#bg-main)"/>
  <rect width="1600" height="900" rx="32" fill="url(#grid)"/>
  <circle cx="298" cy="255" r="520" fill="url(#glow-left)"/>
  <circle cx="1260" cy="700" r="420" fill="url(#glow-right)"/>

  <rect x="76" y="82" width="180" height="180" rx="44" fill="#17120F" filter="url(#shadow-soft)"/>
  <g transform="translate(76 82)">
    <rect x="6" y="6" width="168" height="168" rx="38" fill="url(#mark-bg)"/>
    <path d="M57 57C46.655 57 38.25 65.405 38.25 75.75C38.25 82.6725 42.06 88.745 47.73 91.935C42.6 95.8275 39.255 102.052 39.255 109.058C39.255 120.808 48.8175 130.37 60.5675 130.37C72.3175 130.37 81.88 120.808 81.88 109.058C81.88 100.03 76.1975 92.0175 68.03 88.9825V80.19C72.1525 77.6225 74.88 73.0275 74.88 67.8075C74.88 61.89 70.99 56.5925 64.7625 53.71L57 57Z" fill="#F8E4C3" fill-opacity="0.28"/>
    <path d="M123 57C133.345 57 141.75 65.405 141.75 75.75C141.75 82.6725 137.94 88.745 132.27 91.935C137.4 95.8275 140.745 102.052 140.745 109.058C140.745 120.808 131.182 130.37 119.432 130.37C107.683 130.37 98.12 120.808 98.12 109.058C98.12 100.03 103.802 92.0175 111.97 88.9825V80.19C107.848 77.6225 105.12 73.0275 105.12 67.8075C105.12 61.89 109.01 56.5925 115.238 53.71L123 57Z" fill="#F8E4C3" fill-opacity="0.28"/>
    <path d="M52.625 60.125C43.6025 60.125 36.25 67.4775 36.25 76.5C36.25 83.1888 40.2213 88.9538 45.9812 91.5963C40.7737 95.0225 37.35 101.02 37.35 107.787C37.35 118.367 45.92 126.938 56.5 126.938C67.08 126.938 75.65 118.367 75.65 107.787C75.65 100.788 71.8338 94.4862 66.1562 91.14V79.705C69.7375 76.8263 72.0625 72.385 72.0625 67.475C72.0625 59.1512 65.3487 52.4375 57.025 52.4375H52.1875L60.0762 67.1938L52.625 60.125Z" fill="url(#mark-ink)"/>
    <path d="M127.375 60.125C136.397 60.125 143.75 67.4775 143.75 76.5C143.75 83.1888 139.779 88.9538 134.019 91.5963C139.226 95.0225 142.65 101.02 142.65 107.787C142.65 118.367 134.08 126.938 123.5 126.938C112.92 126.938 104.35 118.367 104.35 107.787C104.35 100.788 108.166 94.4862 113.844 91.14V79.705C110.263 76.8263 107.938 72.385 107.938 67.475C107.938 59.1512 114.651 52.4375 122.975 52.4375H127.812L119.924 67.1938L127.375 60.125Z" fill="url(#mark-ink)"/>
    <path d="M58.125 138.25L75 66.375H89.5312L97.1875 99.9688L104.844 66.375H119.375L136.25 138.25H119.062L111.641 100.734L103.438 138.25H90.9375L82.7344 100.734L75.3125 138.25H58.125Z" fill="#1C120B"/>
    <path d="M58.125 138.25L75 66.375H89.5312L97.1875 99.9688L104.844 66.375H119.375L136.25 138.25H124.609L114.062 85.8281L102.266 138.25H92.1094L80.3125 85.8281L69.7656 138.25H58.125Z" fill="#2A180D"/>
  </g>

  <g opacity="0.96">
    <text x="86" y="340" fill="#F7E4C7" font-family="'Avenir Next', 'Trebuchet MS', sans-serif" font-size="24" font-weight="700" letter-spacing="5">OPENCLAW CONTROL CONSOLE</text>
    <text x="86" y="442" fill="#FFF7EC" font-family="Georgia, 'Times New Roman', serif" font-size="108" font-weight="700">ManClaw</text>
    <text x="86" y="514" fill="#E5C79D" font-family="'Avenir Next', 'Trebuchet MS', sans-serif" font-size="36" font-weight="600">Your Claw, Under Control.</text>
    <text x="86" y="598" fill="#EADCC6" font-family="'Avenir Next', 'Trebuchet MS', sans-serif" font-size="30">Monitor services. Govern configs. Manage skills.</text>
    <text x="86" y="644" fill="#EADCC6" font-family="'Avenir Next', 'Trebuchet MS', sans-serif" font-size="30">Operate shell workflows from one deliberate console.</text>
  </g>

  <g filter="url(#shadow-soft)">
    <rect x="930" y="118" width="572" height="664" rx="30" fill="#0F0C0A" fill-opacity="0.9" stroke="url(#panel-border)" stroke-width="2"/>
    <rect x="960" y="150" width="512" height="120" rx="24" fill="#181310"/>
    <rect x="960" y="150" width="512" height="120" rx="24" stroke="#F0C98E" stroke-opacity="0.12"/>
    <circle cx="1006" cy="210" r="16" fill="#4DBA87"/>
    <text x="1040" y="198" fill="#FFF1DC" font-family="'Avenir Next', 'Trebuchet MS', sans-serif" font-size="30" font-weight="700">Live Service Overview</text>
    <text x="1040" y="234" fill="#CFAE84" font-family="'Avenir Next', 'Trebuchet MS', sans-serif" font-size="20">Health status, process state, logs, and restart controls.</text>

    <rect x="960" y="296" width="246" height="164" rx="24" fill="#181310"/>
    <rect x="1226" y="296" width="246" height="164" rx="24" fill="#181310"/>
    <rect x="960" y="480" width="246" height="164" rx="24" fill="#181310"/>
    <rect x="1226" y="480" width="246" height="164" rx="24" fill="#181310"/>

    <rect x="986" y="324" width="90" height="12" rx="6" fill="url(#accent)"/>
    <text x="986" y="370" fill="#FFF1DC" font-family="'Avenir Next', 'Trebuchet MS', sans-serif" font-size="26" font-weight="700">Service Control</text>
    <text x="986" y="408" fill="#CFAE84" font-family="'Avenir Next', 'Trebuchet MS', sans-serif" font-size="18">Start, stop, restart,</text>
    <text x="986" y="434" fill="#CFAE84" font-family="'Avenir Next', 'Trebuchet MS', sans-serif" font-size="18">and inspect `openclaw`.</text>

    <rect x="1252" y="324" width="90" height="12" rx="6" fill="url(#accent)"/>
    <text x="1252" y="370" fill="#FFF1DC" font-family="'Avenir Next', 'Trebuchet MS', sans-serif" font-size="26" font-weight="700">Config Safety</text>
    <text x="1252" y="408" fill="#CFAE84" font-family="'Avenir Next', 'Trebuchet MS', sans-serif" font-size="18">Edit, validate, save,</text>
    <text x="1252" y="434" fill="#CFAE84" font-family="'Avenir Next', 'Trebuchet MS', sans-serif" font-size="18">and roll back safely.</text>

    <rect x="986" y="508" width="90" height="12" rx="6" fill="url(#accent)"/>
    <text x="986" y="554" fill="#FFF1DC" font-family="'Avenir Next', 'Trebuchet MS', sans-serif" font-size="26" font-weight="700">Skill Ops</text>
    <text x="986" y="592" fill="#CFAE84" font-family="'Avenir Next', 'Trebuchet MS', sans-serif" font-size="18">Install, update, disable,</text>
    <text x="986" y="618" fill="#CFAE84" font-family="'Avenir Next', 'Trebuchet MS', sans-serif" font-size="18">enable, and clean up.</text>

    <rect x="1252" y="508" width="90" height="12" rx="6" fill="url(#accent)"/>
    <text x="1252" y="554" fill="#FFF1DC" font-family="'Avenir Next', 'Trebuchet MS', sans-serif" font-size="26" font-weight="700">Guarded Shell</text>
    <text x="1252" y="592" fill="#CFAE84" font-family="'Avenir Next', 'Trebuchet MS', sans-serif" font-size="18">Controlled execution with</text>
    <text x="1252" y="618" fill="#CFAE84" font-family="'Avenir Next', 'Trebuchet MS', sans-serif" font-size="18">auditable operations.</text>

    <rect x="960" y="676" width="512" height="74" rx="22" fill="#15110E"/>
    <text x="992" y="722" fill="#F5D4A1" font-family="'Avenir Next', 'Trebuchet MS', sans-serif" font-size="26" font-weight="700">Built with Vue 3 + Fastify + TypeScript</text>
  </g>

  <g opacity="0.7">
    <rect x="88" y="736" width="180" height="44" rx="22" fill="#1A1511" stroke="#F3C98F" stroke-opacity="0.24"/>
    <text x="120" y="765" fill="#F5D4A1" font-family="'Avenir Next', 'Trebuchet MS', sans-serif" font-size="22" font-weight="700">Forge UI</text>
    <rect x="286" y="736" width="220" height="44" rx="22" fill="#1A1511" stroke="#F3C98F" stroke-opacity="0.24"/>
    <text x="318" y="765" fill="#F5D4A1" font-family="'Avenir Next', 'Trebuchet MS', sans-serif" font-size="22" font-weight="700">Real OpenClaw</text>
    <rect x="524" y="736" width="216" height="44" rx="22" fill="#1A1511" stroke="#F3C98F" stroke-opacity="0.24"/>
    <text x="556" y="765" fill="#F5D4A1" font-family="'Avenir Next', 'Trebuchet MS', sans-serif" font-size="22" font-weight="700">Single Process</text>
  </g>
</svg>
